<svg width="19" height="22" viewBox="0 0 19 22" fill="none" xmlns="http://www.w3.org/2000/svg">
<path d="M17.5 6.17505V16.175C17.5 20.175 16.5 21.175 12.5 21.175H6.5C2.5 21.175 1.5 20.175 1.5 16.175V6.17505C1.5 2.17505 2.5 1.17505 6.5 1.17505H12.5C16.5 1.17505 17.5 2.17505 17.5 6.17505Z" stroke="#401B60" stroke-width="1.5" stroke-linecap="round" stroke-linejoin="round"/>
<path d="M11.5 4.67505H7.5" stroke="#401B60" stroke-width="1.5" stroke-linecap="round" stroke-linejoin="round"/>
<path d="M9.5002 18.275C10.3562 18.275 11.0502 17.5811 11.0502 16.725C11.0502 15.869 10.3562 15.175 9.5002 15.175C8.64415 15.175 7.9502 15.869 7.9502 16.725C7.9502 17.5811 8.64415 18.275 9.5002 18.275Z" stroke="#401B60" stroke-width="1.5" stroke-linecap="round" stroke-linejoin="round"/>
</svg>
