<svg width="114" height="115" viewBox="0 0 114 115" fill="none" xmlns="http://www.w3.org/2000/svg">
<rect y="0.175049" width="114" height="114" rx="16" fill="white"/>
<path d="M81 42.175V72.175C81 84.175 78 87.175 66 87.175H48C36 87.175 33 84.175 33 72.175V42.175C33 30.175 36 27.175 48 27.175H66C78 27.175 81 30.175 81 42.175Z" stroke="#401B60" stroke-width="4" stroke-linecap="round" stroke-linejoin="round"/>
<path d="M63 37.675H51" stroke="#401B60" stroke-width="4" stroke-linecap="round" stroke-linejoin="round"/>
<path d="M57.0001 78.4751C59.5682 78.4751 61.6501 76.3932 61.6501 73.825C61.6501 71.2569 59.5682 69.175 57.0001 69.175C54.432 69.175 52.3501 71.2569 52.3501 73.825C52.3501 76.3932 54.432 78.4751 57.0001 78.4751Z" stroke="#401B60" stroke-width="4" stroke-linecap="round" stroke-linejoin="round"/>
</svg>
